# Blender 5.0.1
# www.blender.org
o Sphere
v -0.000000 4.076512 1.011633
v -0.000000 4.821684 0.296700
v 0.000000 4.971324 -0.581361
v 0.000000 4.992774 -1.211327
v 0.000000 5.010725 -1.393583
v 0.052480 4.340347 0.904296
v 0.102944 4.594044 0.694954
v 0.145376 4.807366 0.296700
v 0.168955 4.925907 -0.179958
v 0.174569 4.954131 -0.581361
v 0.177533 4.969028 -0.936297
v 0.178754 4.975168 -1.211327
v 0.182256 4.992774 -1.393583
v 0.102943 4.325039 0.904296
v 0.201931 4.564016 0.694954
v 0.285165 4.764961 0.296700
v 0.331418 4.876625 -0.179958
v 0.342430 4.903211 -0.581361
v 0.348243 4.917244 -0.936297
v 0.350638 4.923028 -1.211327
v 0.357508 4.939612 -1.393583
v 0.149451 4.300181 0.904296
v 0.293158 4.515254 0.694954
v 0.413996 4.696100 0.296700
v 0.481144 4.796594 -0.179958
v 0.497131 4.820521 -0.581361
v 0.505570 4.833151 -0.936297
v 0.509048 4.838356 -1.211327
v 0.519021 4.853281 -1.393583
v 0.190215 4.266726 0.904296
v 0.373120 4.449632 0.694954
v 0.526917 4.603428 0.296700
v 0.612380 4.688892 -0.179958
v 0.632728 4.709240 -0.581361
v 0.643469 4.719981 -0.936297
v 0.647895 4.724407 -1.211327
v 0.660588 4.737100 -1.393583
v 0.223669 4.225963 0.904296
v 0.438742 4.369670 0.694954
v 0.619588 4.490508 0.296700
v 0.720082 4.557655 -0.179958
v 0.744009 4.573643 -0.581362
v 0.756639 4.582082 -0.936297
v 0.761844 4.585560 -1.211327
v 0.776770 4.595532 -1.393583
v 0.248528 4.179455 0.904296
v 0.487504 4.278443 0.694954
v 0.688450 4.361677 0.296700
v 0.800113 4.407929 -0.179958
v 0.826699 4.418941 -0.581362
v 0.840732 4.424755 -0.936297
v 0.846516 4.427150 -1.211327
v 0.863100 4.434020 -1.393583
v 0.263835 4.128992 0.904296
v 0.517532 4.179455 0.694954
v 0.730854 4.221888 0.296700
v 0.849395 4.245467 -0.179958
v 0.877619 4.251081 -0.581361
v 0.892517 4.254045 -0.936297
v 0.898656 4.255266 -1.211327
v 0.916262 4.258768 -1.393583
v 0.269004 4.076512 0.904296
v 0.527671 4.076512 0.694954
v 0.745172 4.076512 0.296700
v 0.866036 4.076512 -0.179958
v 0.894812 4.076512 -0.581361
v 0.910002 4.076512 -0.936297
v 0.916262 4.076512 -1.211327
v 0.934213 4.076512 -1.393583
v 0.263835 4.024032 0.904296
v 0.517532 3.973568 0.694954
v 0.730854 3.931136 0.296700
v 0.849395 3.907557 -0.179958
v 0.877619 3.901943 -0.581361
v 0.892517 3.898979 -0.936297
v 0.898656 3.897758 -1.211327
v 0.916262 3.894256 -1.393583
v 0.248528 3.973568 0.904296
v 0.487504 3.874581 0.694954
v 0.688449 3.791347 0.296700
v 0.800112 3.745095 -0.179958
v 0.826699 3.734082 -0.581361
v 0.840732 3.728269 -0.936297
v 0.846516 3.725873 -1.211327
v 0.863100 3.719004 -1.393583
v 0.223669 3.927061 0.904296
v 0.438742 3.783354 0.694954
v 0.619588 3.662516 0.296700
v 0.720082 3.595368 -0.179958
v 0.744009 3.579381 -0.581361
v 0.756639 3.570942 -0.936297
v 0.761844 3.567464 -1.211327
v 0.776769 3.557491 -1.393583
v 0.190215 3.886297 0.904296
v 0.373120 3.703392 0.694954
v 0.526916 3.549595 0.296700
v 0.612380 3.464132 -0.179958
v 0.632728 3.443784 -0.581361
v 0.643469 3.433043 -0.936297
v 0.647895 3.428617 -1.211327
v 0.660588 3.415924 -1.393583
v 0.149451 3.852843 0.904296
v 0.293158 3.637769 0.694954
v 0.413995 3.456924 0.296700
v 0.481144 3.356430 -0.179958
v 0.497131 3.332503 -0.581361
v 0.505570 3.319873 -0.936297
v 0.509048 3.314668 -1.211327
v 0.519020 3.299742 -1.393583
v 0.102943 3.827985 0.904296
v 0.201931 3.589008 0.694953
v 0.285165 3.388062 0.296700
v 0.331418 3.276399 -0.179958
v 0.342430 3.249813 -0.581361
v 0.348243 3.235780 -0.936297
v 0.350638 3.229996 -1.211327
v 0.357507 3.213412 -1.393583
v 0.052480 3.812677 0.904296
v 0.102943 3.558980 0.694953
v 0.145376 3.345658 0.296700
v 0.168955 3.227117 -0.179958
v 0.174569 3.198893 -0.581362
v 0.177533 3.183995 -0.936297
v 0.178754 3.177856 -1.211327
v 0.182256 3.160250 -1.393583
v -0.000000 3.807508 0.904296
v -0.000000 3.548841 0.694953
v -0.000000 3.331340 0.296700
v -0.000000 3.210476 -0.179958
v -0.000000 3.181700 -0.581362
v 0.000000 3.166510 -0.936297
v -0.000000 3.160250 -1.211327
v -0.000000 3.142300 -1.393583
v -0.052480 3.812677 0.904296
v -0.102944 3.558980 0.694953
v -0.145376 3.345658 0.296700
v -0.168955 3.227117 -0.179958
v -0.174569 3.198893 -0.581362
v -0.177533 3.183995 -0.936297
v -0.178754 3.177856 -1.211327
v -0.182256 3.160250 -1.393583
v -0.102943 3.827985 0.904296
v -0.201931 3.589008 0.694953
v -0.285165 3.388062 0.296700
v -0.331417 3.276399 -0.179958
v -0.342430 3.249813 -0.581362
v -0.348243 3.235780 -0.936297
v -0.350638 3.229996 -1.211327
v -0.357508 3.213413 -1.393583
v -0.149451 3.852843 0.904296
v -0.293158 3.637770 0.694954
v -0.413996 3.456924 0.296700
v -0.481144 3.356430 -0.179958
v -0.497131 3.332503 -0.581361
v -0.505570 3.319873 -0.936297
v -0.509048 3.314668 -1.211327
v -0.519021 3.299743 -1.393583
v -0.190215 3.886297 0.904296
v -0.373120 3.703392 0.694953
v -0.526916 3.549596 0.296700
v -0.612380 3.464132 -0.179958
v -0.632728 3.443784 -0.581362
v -0.643468 3.433043 -0.936297
v -0.647895 3.428617 -1.211327
v -0.660588 3.415925 -1.393583
v -0.223669 3.927061 0.904296
v -0.438742 3.783354 0.694953
v -0.619588 3.662517 0.296700
v -0.720082 3.595368 -0.179958
v -0.744009 3.579381 -0.581362
v -0.756639 3.570942 -0.936297
v -0.761844 3.567464 -1.211327
v -0.776769 3.557492 -1.393583
v -0.248527 3.973568 0.904296
v -0.487504 3.874581 0.694954
v -0.688449 3.791347 0.296700
v -0.800112 3.745095 -0.179958
v -0.826699 3.734082 -0.581362
v -0.840732 3.728269 -0.936297
v -0.846516 3.725874 -1.211327
v -0.863099 3.719005 -1.393583
v -0.263835 4.024032 0.904296
v -0.517532 3.973568 0.694953
v -0.730854 3.931136 0.296700
v -0.849395 3.907557 -0.179958
v -0.877619 3.901943 -0.581362
v -0.892516 3.898979 -0.936297
v -0.898656 3.897758 -1.211327
v -0.916261 3.894257 -1.393583
v -0.269004 4.076512 0.904296
v -0.527671 4.076512 0.694954
v -0.745172 4.076512 0.296700
v -0.866035 4.076512 -0.179958
v -0.894812 4.076512 -0.581361
v -0.910002 4.076512 -0.936297
v -0.916262 4.076512 -1.211327
v -0.934212 4.076512 -1.393583
v -0.263835 4.128992 0.904296
v -0.517532 4.179455 0.694953
v -0.730854 4.221888 0.296700
v -0.849395 4.245467 -0.179958
v -0.877619 4.251081 -0.581362
v -0.892516 4.254045 -0.936297
v -0.898656 4.255266 -1.211327
v -0.916261 4.258768 -1.393583
v -0.248527 4.179455 0.904296
v -0.487504 4.278443 0.694953
v -0.688449 4.361677 0.296700
v -0.800112 4.407929 -0.179958
v -0.826698 4.418942 -0.581361
v -0.840732 4.424755 -0.936297
v -0.846515 4.427150 -1.211327
v -0.863099 4.434020 -1.393583
v -0.223669 4.225963 0.904296
v -0.438742 4.369670 0.694954
v -0.619588 4.490508 0.296700
v -0.720082 4.557655 -0.179958
v -0.744009 4.573643 -0.581361
v -0.756639 4.582082 -0.936297
v -0.761844 4.585560 -1.211327
v -0.776768 4.595532 -1.393583
v -0.190215 4.266726 0.904296
v -0.373120 4.449632 0.694953
v -0.526916 4.603428 0.296700
v -0.612380 4.688891 -0.179958
v -0.632728 4.709239 -0.581362
v -0.643468 4.719980 -0.936297
v -0.647895 4.724407 -1.211327
v -0.660587 4.737100 -1.393583
v -0.149451 4.300181 0.904296
v -0.293158 4.515254 0.694953
v -0.413995 4.696100 0.296700
v -0.481143 4.796594 -0.179958
v -0.497131 4.820521 -0.581362
v -0.505570 4.833151 -0.936297
v -0.509048 4.838356 -1.211327
v -0.519020 4.853281 -1.393583
v -0.102943 4.325039 0.904296
v -0.201931 4.564016 0.694953
v -0.285165 4.764961 0.296700
v -0.331417 4.876624 -0.179958
v -0.342429 4.903210 -0.581362
v -0.348243 4.917244 -0.936297
v -0.350638 4.923028 -1.211327
v -0.357507 4.939611 -1.393583
v -0.052480 4.340347 0.904296
v -0.102943 4.594044 0.694954
v -0.145376 4.807365 0.296700
v -0.168955 4.925907 -0.179958
v -0.174569 4.954130 -0.581361
v -0.177532 4.969028 -0.936297
v -0.178753 4.975168 -1.211327
v -0.182255 4.992773 -1.393583
v 0.000000 4.345516 0.904296
v 0.000000 4.604183 0.694954
v 0.000000 4.942547 -0.179957
v 0.000000 4.986514 -0.936297
vn 0.0618 0.6279 0.7758
vn 0.0861 0.8744 0.4775
vn 0.0950 0.9649 0.2447
vn 0.0978 0.9927 0.0712
vn 0.0979 0.9943 0.0426
vn 0.0980 0.9949 0.0226
vn 0.0975 0.9904 0.0975
vn 0.0365 0.3704 0.9282
vn 0.2889 0.9524 0.0975
vn 0.1080 0.3561 0.9282
vn 0.1831 0.6038 0.7758
vn 0.2550 0.8408 0.4775
vn 0.2815 0.9279 0.2447
vn 0.2895 0.9545 0.0712
vn 0.2900 0.9561 0.0426
vn 0.2902 0.9567 0.0226
vn 0.4702 0.8797 0.0712
vn 0.4710 0.8811 0.0426
vn 0.4713 0.8817 0.0226
vn 0.4691 0.8777 0.0975
vn 0.1754 0.3282 0.9282
vn 0.2974 0.5564 0.7758
vn 0.4142 0.7749 0.4775
vn 0.4571 0.8551 0.2447
vn 0.2361 0.2877 0.9282
vn 0.4003 0.4877 0.7758
vn 0.5574 0.6792 0.4775
vn 0.6151 0.7495 0.2447
vn 0.6328 0.7711 0.0712
vn 0.6338 0.7723 0.0426
vn 0.6342 0.7728 0.0226
vn 0.6314 0.7693 0.0975
vn 0.7711 0.6328 0.0712
vn 0.7723 0.6338 0.0426
vn 0.7728 0.6342 0.0226
vn 0.7693 0.6314 0.0975
vn 0.2877 0.2361 0.9282
vn 0.4877 0.4003 0.7758
vn 0.6792 0.5574 0.4775
vn 0.7495 0.6151 0.2447
vn 0.5564 0.2974 0.7758
vn 0.7749 0.4142 0.4775
vn 0.8551 0.4571 0.2447
vn 0.8797 0.4702 0.0712
vn 0.8811 0.4710 0.0426
vn 0.8817 0.4713 0.0226
vn 0.8777 0.4691 0.0975
vn 0.3282 0.1754 0.9282
vn 0.9561 0.2900 0.0426
vn 0.9567 0.2902 0.0226
vn 0.9524 0.2889 0.0975
vn 0.3561 0.1080 0.9282
vn 0.6038 0.1832 0.7758
vn 0.8408 0.2550 0.4775
vn 0.9279 0.2815 0.2447
vn 0.9545 0.2895 0.0712
vn 0.6279 0.0618 0.7758
vn 0.8744 0.0861 0.4775
vn 0.9649 0.0950 0.2447
vn 0.9927 0.0978 0.0712
vn 0.9943 0.0979 0.0426
vn 0.9949 0.0980 0.0226
vn 0.9904 0.0975 0.0975
vn 0.3704 0.0365 0.9282
vn 0.9943 -0.0979 0.0426
vn 0.9949 -0.0980 0.0226
vn 0.9904 -0.0975 0.0975
vn 0.3704 -0.0365 0.9282
vn 0.6279 -0.0618 0.7758
vn 0.8744 -0.0861 0.4775
vn 0.9649 -0.0950 0.2447
vn 0.9927 -0.0978 0.0712
vn 0.8408 -0.2550 0.4775
vn 0.9279 -0.2815 0.2447
vn 0.9545 -0.2895 0.0712
vn 0.9561 -0.2900 0.0426
vn 0.9567 -0.2902 0.0226
vn 0.9524 -0.2889 0.0975
vn 0.3561 -0.1080 0.9282
vn 0.6038 -0.1832 0.7758
vn 0.8817 -0.4713 0.0226
vn 0.8777 -0.4691 0.0975
vn 0.3282 -0.1754 0.9282
vn 0.5564 -0.2974 0.7758
vn 0.7749 -0.4142 0.4775
vn 0.8551 -0.4571 0.2447
vn 0.8797 -0.4702 0.0712
vn 0.8811 -0.4710 0.0426
vn 0.7495 -0.6151 0.2447
vn 0.7711 -0.6328 0.0712
vn 0.7723 -0.6338 0.0426
vn 0.7728 -0.6342 0.0226
vn 0.7693 -0.6314 0.0975
vn 0.2877 -0.2361 0.9282
vn 0.4877 -0.4003 0.7758
vn 0.6792 -0.5574 0.4775
vn 0.6314 -0.7693 0.0975
vn 0.2361 -0.2877 0.9282
vn 0.4003 -0.4877 0.7758
vn 0.5574 -0.6792 0.4775
vn 0.6151 -0.7495 0.2447
vn 0.6328 -0.7711 0.0712
vn 0.6338 -0.7723 0.0426
vn 0.6342 -0.7728 0.0226
vn 0.4571 -0.8551 0.2447
vn 0.4702 -0.8797 0.0712
vn 0.4710 -0.8811 0.0426
vn 0.4713 -0.8817 0.0226
vn 0.4691 -0.8777 0.0975
vn 0.1754 -0.3282 0.9282
vn 0.2974 -0.5564 0.7758
vn 0.4142 -0.7749 0.4775
vn 0.2889 -0.9524 0.0975
vn 0.1080 -0.3561 0.9282
vn 0.1831 -0.6038 0.7758
vn 0.2550 -0.8408 0.4775
vn 0.2815 -0.9279 0.2447
vn 0.2895 -0.9545 0.0712
vn 0.2900 -0.9561 0.0426
vn 0.2902 -0.9567 0.0226
vn 0.0978 -0.9927 0.0712
vn 0.0979 -0.9943 0.0426
vn 0.0980 -0.9949 0.0226
vn 0.0975 -0.9904 0.0975
vn 0.0365 -0.3704 0.9282
vn 0.0618 -0.6279 0.7758
vn 0.0861 -0.8744 0.4775
vn 0.0950 -0.9649 0.2447
vn -0.0365 -0.3704 0.9282
vn -0.0618 -0.6279 0.7758
vn -0.0861 -0.8744 0.4775
vn -0.0950 -0.9649 0.2447
vn -0.0978 -0.9927 0.0712
vn -0.0979 -0.9943 0.0426
vn -0.0980 -0.9949 0.0226
vn -0.0976 -0.9904 0.0975
vn -0.2895 -0.9545 0.0712
vn -0.2900 -0.9561 0.0426
vn -0.2902 -0.9567 0.0226
vn -0.2889 -0.9524 0.0975
vn -0.1080 -0.3561 0.9282
vn -0.1832 -0.6038 0.7758
vn -0.2550 -0.8408 0.4775
vn -0.2815 -0.9279 0.2447
vn -0.2974 -0.5564 0.7758
vn -0.4142 -0.7749 0.4775
vn -0.4571 -0.8551 0.2447
vn -0.4702 -0.8797 0.0712
vn -0.4710 -0.8811 0.0426
vn -0.4713 -0.8817 0.0226
vn -0.4691 -0.8777 0.0975
vn -0.1754 -0.3282 0.9282
vn -0.6338 -0.7723 0.0426
vn -0.6342 -0.7728 0.0226
vn -0.6314 -0.7693 0.0975
vn -0.2361 -0.2877 0.9282
vn -0.4003 -0.4877 0.7758
vn -0.5574 -0.6792 0.4775
vn -0.6151 -0.7495 0.2447
vn -0.6328 -0.7711 0.0712
vn -0.6792 -0.5574 0.4775
vn -0.7495 -0.6151 0.2447
vn -0.7711 -0.6328 0.0712
vn -0.7723 -0.6338 0.0426
vn -0.7728 -0.6342 0.0226
vn -0.7693 -0.6314 0.0975
vn -0.2877 -0.2361 0.9282
vn -0.4877 -0.4003 0.7758
vn -0.8817 -0.4713 0.0226
vn -0.8777 -0.4691 0.0975
vn -0.3282 -0.1754 0.9282
vn -0.5564 -0.2974 0.7758
vn -0.7749 -0.4142 0.4775
vn -0.8551 -0.4571 0.2447
vn -0.8797 -0.4702 0.0712
vn -0.8811 -0.4710 0.0426
vn -0.8408 -0.2550 0.4775
vn -0.9279 -0.2815 0.2447
vn -0.9545 -0.2895 0.0712
vn -0.9561 -0.2900 0.0426
vn -0.9567 -0.2902 0.0226
vn -0.9524 -0.2889 0.0975
vn -0.3561 -0.1080 0.9282
vn -0.6038 -0.1832 0.7758
vn -0.9949 -0.0980 0.0226
vn -0.9904 -0.0975 0.0975
vn -0.3704 -0.0365 0.9282
vn -0.6279 -0.0618 0.7758
vn -0.8744 -0.0861 0.4775
vn -0.9649 -0.0950 0.2447
vn -0.9927 -0.0978 0.0712
vn -0.9943 -0.0979 0.0426
vn -0.9649 0.0950 0.2447
vn -0.9927 0.0978 0.0712
vn -0.9943 0.0979 0.0426
vn -0.9949 0.0980 0.0226
vn -0.9904 0.0975 0.0975
vn -0.3704 0.0365 0.9282
vn -0.6279 0.0618 0.7758
vn -0.8744 0.0861 0.4775
vn -0.9524 0.2889 0.0975
vn -0.3561 0.1080 0.9282
vn -0.6038 0.1832 0.7758
vn -0.8408 0.2550 0.4775
vn -0.9279 0.2815 0.2447
vn -0.9545 0.2895 0.0712
vn -0.9561 0.2900 0.0426
vn -0.9567 0.2902 0.0226
vn -0.8551 0.4571 0.2447
vn -0.8797 0.4702 0.0712
vn -0.8811 0.4710 0.0426
vn -0.8817 0.4713 0.0226
vn -0.8777 0.4691 0.0975
vn -0.3282 0.1754 0.9282
vn -0.5564 0.2974 0.7758
vn -0.7749 0.4142 0.4775
vn -0.7693 0.6314 0.0975
vn -0.2877 0.2361 0.9282
vn -0.4877 0.4003 0.7758
vn -0.6792 0.5574 0.4775
vn -0.7495 0.6151 0.2447
vn -0.7711 0.6328 0.0712
vn -0.7723 0.6338 0.0426
vn -0.7728 0.6342 0.0226
vn -0.6328 0.7711 0.0712
vn -0.6338 0.7723 0.0426
vn -0.6342 0.7728 0.0226
vn -0.6314 0.7693 0.0975
vn -0.2361 0.2877 0.9282
vn -0.4003 0.4877 0.7758
vn -0.5574 0.6792 0.4775
vn -0.6151 0.7495 0.2447
vn -0.2974 0.5564 0.7758
vn -0.4142 0.7749 0.4775
vn -0.4571 0.8551 0.2447
vn -0.4702 0.8797 0.0712
vn -0.4710 0.8811 0.0426
vn -0.4713 0.8817 0.0226
vn -0.4691 0.8777 0.0975
vn -0.1754 0.3282 0.9282
vn -0.2900 0.9561 0.0426
vn -0.2902 0.9567 0.0226
vn -0.2889 0.9524 0.0975
vn -0.1080 0.3561 0.9282
vn -0.1832 0.6038 0.7758
vn -0.2550 0.8408 0.4775
vn -0.2815 0.9279 0.2447
vn -0.2895 0.9545 0.0712
vn -0.0618 0.6279 0.7758
vn -0.0861 0.8744 0.4775
vn -0.0950 0.9649 0.2447
vn -0.0978 0.9927 0.0712
vn -0.0979 0.9943 0.0426
vn -0.0980 0.9949 0.0226
vn -0.0976 0.9904 0.0975
vn -0.0365 0.3704 0.9282
vt 0.750000 0.742857
vt 0.750000 0.864286
vt 0.718750 0.864286
vt 0.718750 0.742857
vt 0.750000 0.621429
vt 0.718750 0.621429
vt 0.750000 0.500000
vt 0.718750 0.500000
vt 0.750000 0.378571
vt 0.718750 0.378571
vt 0.750000 0.257143
vt 0.718750 0.257143
vt 0.750000 0.135714
vt 0.718750 0.135714
vt 0.750000 0.014286
vt 0.718750 0.014286
vt 0.734375 0.985714
vt 0.687500 0.135714
vt 0.687500 0.014286
vt 0.703125 0.985714
vt 0.687500 0.864286
vt 0.687500 0.742857
vt 0.687500 0.621429
vt 0.687500 0.500000
vt 0.687500 0.378571
vt 0.687500 0.257143
vt 0.656250 0.500000
vt 0.656250 0.378571
vt 0.656250 0.257143
vt 0.656250 0.135714
vt 0.656250 0.014286
vt 0.671875 0.985714
vt 0.656250 0.864286
vt 0.656250 0.742857
vt 0.656250 0.621429
vt 0.640625 0.985714
vt 0.625000 0.864286
vt 0.625000 0.742857
vt 0.625000 0.621429
vt 0.625000 0.500000
vt 0.625000 0.378571
vt 0.625000 0.257143
vt 0.625000 0.135714
vt 0.625000 0.014286
vt 0.593750 0.500000
vt 0.593750 0.378571
vt 0.593750 0.257143
vt 0.593750 0.135714
vt 0.593750 0.014286
vt 0.609375 0.985714
vt 0.593750 0.864286
vt 0.593750 0.742857
vt 0.593750 0.621429
vt 0.562500 0.864286
vt 0.562500 0.742857
vt 0.562500 0.621429
vt 0.562500 0.500000
vt 0.562500 0.378571
vt 0.562500 0.257143
vt 0.562500 0.135714
vt 0.562500 0.014286
vt 0.578125 0.985714
vt 0.531250 0.378571
vt 0.531250 0.257143
vt 0.531250 0.135714
vt 0.531250 0.014286
vt 0.546875 0.985714
vt 0.531250 0.864286
vt 0.531250 0.742857
vt 0.531250 0.621429
vt 0.531250 0.500000
vt 0.500000 0.864286
vt 0.500000 0.742857
vt 0.500000 0.621429
vt 0.500000 0.500000
vt 0.500000 0.378571
vt 0.500000 0.257143
vt 0.500000 0.135714
vt 0.500000 0.014286
vt 0.515625 0.985714
vt 0.468750 0.378571
vt 0.468750 0.257143
vt 0.468750 0.135714
vt 0.468750 0.014286
vt 0.484375 0.985714
vt 0.468750 0.864286
vt 0.468750 0.742857
vt 0.468750 0.621429
vt 0.468750 0.500000
vt 0.437500 0.742857
vt 0.437500 0.621429
vt 0.437500 0.500000
vt 0.437500 0.378571
vt 0.437500 0.257143
vt 0.437500 0.135714
vt 0.437500 0.014286
vt 0.453125 0.985714
vt 0.437500 0.864286
vt 0.406250 0.257143
vt 0.406250 0.135714
vt 0.406250 0.014286
vt 0.421875 0.985714
vt 0.406250 0.864286
vt 0.406250 0.742857
vt 0.406250 0.621429
vt 0.406250 0.500000
vt 0.406250 0.378571
vt 0.375000 0.621429
vt 0.375000 0.500000
vt 0.375000 0.378571
vt 0.375000 0.257143
vt 0.375000 0.135714
vt 0.375000 0.014286
vt 0.390625 0.985714
vt 0.375000 0.864286
vt 0.375000 0.742857
vt 0.343750 0.135714
vt 0.343750 0.014286
vt 0.359375 0.985714
vt 0.343750 0.864286
vt 0.343750 0.742857
vt 0.343750 0.621429
vt 0.343750 0.500000
vt 0.343750 0.378571
vt 0.343750 0.257143
vt 0.312500 0.621429
vt 0.312500 0.500000
vt 0.312500 0.378571
vt 0.312500 0.257143
vt 0.312500 0.135714
vt 0.312500 0.014286
vt 0.328125 0.985714
vt 0.312500 0.864286
vt 0.312500 0.742857
vt 0.281250 0.135714
vt 0.281250 0.014286
vt 0.296875 0.985714
vt 0.281250 0.864286
vt 0.281250 0.742857
vt 0.281250 0.621429
vt 0.281250 0.500000
vt 0.281250 0.378571
vt 0.281250 0.257143
vt 0.250000 0.500000
vt 0.250000 0.378571
vt 0.250000 0.257143
vt 0.250000 0.135714
vt 0.250000 0.014286
vt 0.265625 0.985714
vt 0.250000 0.864286
vt 0.250000 0.742857
vt 0.250000 0.621429
vt 0.234375 0.985714
vt 0.218750 0.864286
vt 0.218750 0.742857
vt 0.218750 0.621429
vt 0.218750 0.500000
vt 0.218750 0.378571
vt 0.218750 0.257143
vt 0.218750 0.135714
vt 0.218750 0.014286
vt 0.187500 0.500000
vt 0.187500 0.378571
vt 0.187500 0.257143
vt 0.187500 0.135714
vt 0.187500 0.014286
vt 0.203125 0.985714
vt 0.187500 0.864286
vt 0.187500 0.742857
vt 0.187500 0.621429
vt 0.156250 0.864286
vt 0.156250 0.742857
vt 0.156250 0.621429
vt 0.156250 0.500000
vt 0.156250 0.378571
vt 0.156250 0.257143
vt 0.156250 0.135714
vt 0.156250 0.014286
vt 0.171875 0.985714
vt 0.125000 0.378571
vt 0.125000 0.257143
vt 0.125000 0.135714
vt 0.125000 0.014286
vt 0.140625 0.985714
vt 0.125000 0.864286
vt 0.125000 0.742857
vt 0.125000 0.621429
vt 0.125000 0.500000
vt 0.093750 0.742857
vt 0.093750 0.621429
vt 0.093750 0.500000
vt 0.093750 0.378571
vt 0.093750 0.257143
vt 0.093750 0.135714
vt 0.093750 0.014286
vt 0.109375 0.985714
vt 0.093750 0.864286
vt 0.062500 0.257143
vt 0.062500 0.135714
vt 0.062500 0.014286
vt 0.078125 0.985714
vt 0.062500 0.864286
vt 0.062500 0.742857
vt 0.062500 0.621429
vt 0.062500 0.500000
vt 0.062500 0.378572
vt 0.031250 0.742857
vt 0.031250 0.621429
vt 0.031250 0.500000
vt 0.031250 0.378571
vt 0.031250 0.257143
vt 0.031250 0.135714
vt 0.031250 0.014286
vt 0.046875 0.985714
vt 0.031250 0.864286
vt 0.000000 0.257143
vt 0.000000 0.135714
vt 0.000000 0.014286
vt 0.015625 0.985714
vt 0.000000 0.864286
vt 0.000000 0.742857
vt 0.000000 0.621429
vt 0.000000 0.500000
vt 0.000000 0.378571
vt 1.000000 0.500000
vt 1.000000 0.621429
vt 0.968750 0.621429
vt 0.968750 0.500000
vt 1.000000 0.378571
vt 0.968750 0.378572
vt 1.000000 0.257143
vt 0.968750 0.257143
vt 1.000000 0.135714
vt 0.968750 0.135714
vt 1.000000 0.014286
vt 0.968750 0.014286
vt 1.000000 0.864286
vt 0.984375 0.985714
vt 0.968750 0.864286
vt 1.000000 0.742857
vt 0.968750 0.742857
vt 0.937500 0.135714
vt 0.937500 0.014286
vt 0.953125 0.985714
vt 0.937500 0.864286
vt 0.937500 0.742857
vt 0.937500 0.621429
vt 0.937500 0.500000
vt 0.937500 0.378572
vt 0.937500 0.257143
vt 0.906250 0.621429
vt 0.906250 0.500000
vt 0.906250 0.378572
vt 0.906250 0.257143
vt 0.906250 0.135714
vt 0.906250 0.014286
vt 0.921875 0.985714
vt 0.906250 0.864286
vt 0.906250 0.742857
vt 0.875000 0.135714
vt 0.875000 0.014286
vt 0.890625 0.985714
vt 0.875000 0.864286
vt 0.875000 0.742857
vt 0.875000 0.621429
vt 0.875000 0.500000
vt 0.875000 0.378572
vt 0.875000 0.257143
vt 0.843750 0.500000
vt 0.843750 0.378572
vt 0.843750 0.257143
vt 0.843750 0.135714
vt 0.843750 0.014286
vt 0.859375 0.985714
vt 0.843750 0.864286
vt 0.843750 0.742857
vt 0.843750 0.621429
vt 0.812500 0.864286
vt 0.812500 0.742857
vt 0.812500 0.621429
vt 0.812500 0.500000
vt 0.812500 0.378572
vt 0.812500 0.257143
vt 0.812500 0.135714
vt 0.812500 0.014286
vt 0.828125 0.985714
vt 0.781250 0.378572
vt 0.781250 0.257143
vt 0.781250 0.135714
vt 0.781250 0.014286
vt 0.796875 0.985714
vt 0.781250 0.864286
vt 0.781250 0.742857
vt 0.781250 0.621429
vt 0.781250 0.500000
vt 0.765625 0.985714
s 0
f 255/1/1 254/2/1 6/3/1 7/4/1
f 2/5/2 255/1/2 7/4/2 8/6/2
f 256/7/3 2/5/3 8/6/3 9/8/3
f 3/9/4 256/7/4 9/8/4 10/10/4
f 257/11/5 3/9/5 10/10/5 11/12/5
f 4/13/6 257/11/6 11/12/6 12/14/6
f 5/15/7 4/13/7 12/14/7 13/16/7
f 254/2/8 1/17/8 6/3/8
f 13/16/9 12/14/9 20/18/9 21/19/9
f 6/3/10 1/20/10 14/21/10
f 7/4/11 6/3/11 14/21/11 15/22/11
f 8/6/12 7/4/12 15/22/12 16/23/12
f 9/8/13 8/6/13 16/23/13 17/24/13
f 10/10/14 9/8/14 17/24/14 18/25/14
f 11/12/15 10/10/15 18/25/15 19/26/15
f 12/14/16 11/12/16 19/26/16 20/18/16
f 18/25/17 17/24/17 25/27/17 26/28/17
f 19/26/18 18/25/18 26/28/18 27/29/18
f 20/18/19 19/26/19 27/29/19 28/30/19
f 21/19/20 20/18/20 28/30/20 29/31/20
f 14/21/21 1/32/21 22/33/21
f 15/22/22 14/21/22 22/33/22 23/34/22
f 16/23/23 15/22/23 23/34/23 24/35/23
f 17/24/24 16/23/24 24/35/24 25/27/24
f 22/33/25 1/36/25 30/37/25
f 23/34/26 22/33/26 30/37/26 31/38/26
f 24/35/27 23/34/27 31/38/27 32/39/27
f 25/27/28 24/35/28 32/39/28 33/40/28
f 26/28/29 25/27/29 33/40/29 34/41/29
f 27/29/30 26/28/30 34/41/30 35/42/30
f 28/30/31 27/29/31 35/42/31 36/43/31
f 29/31/32 28/30/32 36/43/32 37/44/32
f 34/41/33 33/40/33 41/45/33 42/46/33
f 35/42/34 34/41/34 42/46/34 43/47/34
f 36/43/35 35/42/35 43/47/35 44/48/35
f 37/44/36 36/43/36 44/48/36 45/49/36
f 30/37/37 1/50/37 38/51/37
f 31/38/38 30/37/38 38/51/38 39/52/38
f 32/39/39 31/38/39 39/52/39 40/53/39
f 33/40/40 32/39/40 40/53/40 41/45/40
f 39/52/41 38/51/41 46/54/41 47/55/41
f 40/53/42 39/52/42 47/55/42 48/56/42
f 41/45/43 40/53/43 48/56/43 49/57/43
f 42/46/44 41/45/44 49/57/44 50/58/44
f 43/47/45 42/46/45 50/58/45 51/59/45
f 44/48/46 43/47/46 51/59/46 52/60/46
f 45/49/47 44/48/47 52/60/47 53/61/47
f 38/51/48 1/62/48 46/54/48
f 51/59/49 50/58/49 58/63/49 59/64/49
f 52/60/50 51/59/50 59/64/50 60/65/50
f 53/61/51 52/60/51 60/65/51 61/66/51
f 46/54/52 1/67/52 54/68/52
f 47/55/53 46/54/53 54/68/53 55/69/53
f 48/56/54 47/55/54 55/69/54 56/70/54
f 49/57/55 48/56/55 56/70/55 57/71/55
f 50/58/56 49/57/56 57/71/56 58/63/56
f 55/69/57 54/68/57 62/72/57 63/73/57
f 56/70/58 55/69/58 63/73/58 64/74/58
f 57/71/59 56/70/59 64/74/59 65/75/59
f 58/63/60 57/71/60 65/75/60 66/76/60
f 59/64/61 58/63/61 66/76/61 67/77/61
f 60/65/62 59/64/62 67/77/62 68/78/62
f 61/66/63 60/65/63 68/78/63 69/79/63
f 54/68/64 1/80/64 62/72/64
f 67/77/65 66/76/65 74/81/65 75/82/65
f 68/78/66 67/77/66 75/82/66 76/83/66
f 69/79/67 68/78/67 76/83/67 77/84/67
f 62/72/68 1/85/68 70/86/68
f 63/73/69 62/72/69 70/86/69 71/87/69
f 64/74/70 63/73/70 71/87/70 72/88/70
f 65/75/71 64/74/71 72/88/71 73/89/71
f 66/76/72 65/75/72 73/89/72 74/81/72
f 72/88/73 71/87/73 79/90/73 80/91/73
f 73/89/74 72/88/74 80/91/74 81/92/74
f 74/81/75 73/89/75 81/92/75 82/93/75
f 75/82/76 74/81/76 82/93/76 83/94/76
f 76/83/77 75/82/77 83/94/77 84/95/77
f 77/84/78 76/83/78 84/95/78 85/96/78
f 70/86/79 1/97/79 78/98/79
f 71/87/80 70/86/80 78/98/80 79/90/80
f 84/95/81 83/94/81 91/99/81 92/100/81
f 85/96/82 84/95/82 92/100/82 93/101/82
f 78/98/83 1/102/83 86/103/83
f 79/90/84 78/98/84 86/103/84 87/104/84
f 80/91/85 79/90/85 87/104/85 88/105/85
f 81/92/86 80/91/86 88/105/86 89/106/86
f 82/93/87 81/92/87 89/106/87 90/107/87
f 83/94/88 82/93/88 90/107/88 91/99/88
f 89/106/89 88/105/89 96/108/89 97/109/89
f 90/107/90 89/106/90 97/109/90 98/110/90
f 91/99/91 90/107/91 98/110/91 99/111/91
f 92/100/92 91/99/92 99/111/92 100/112/92
f 93/101/93 92/100/93 100/112/93 101/113/93
f 86/103/94 1/114/94 94/115/94
f 87/104/95 86/103/95 94/115/95 95/116/95
f 88/105/96 87/104/96 95/116/96 96/108/96
f 101/113/97 100/112/97 108/117/97 109/118/97
f 94/115/98 1/119/98 102/120/98
f 95/116/99 94/115/99 102/120/99 103/121/99
f 96/108/100 95/116/100 103/121/100 104/122/100
f 97/109/101 96/108/101 104/122/101 105/123/101
f 98/110/102 97/109/102 105/123/102 106/124/102
f 99/111/103 98/110/103 106/124/103 107/125/103
f 100/112/104 99/111/104 107/125/104 108/117/104
f 105/123/105 104/122/105 112/126/105 113/127/105
f 106/124/106 105/123/106 113/127/106 114/128/106
f 107/125/107 106/124/107 114/128/107 115/129/107
f 108/117/108 107/125/108 115/129/108 116/130/108
f 109/118/109 108/117/109 116/130/109 117/131/109
f 102/120/110 1/132/110 110/133/110
f 103/121/111 102/120/111 110/133/111 111/134/111
f 104/122/112 103/121/112 111/134/112 112/126/112
f 117/131/113 116/130/113 124/135/113 125/136/113
f 110/133/114 1/137/114 118/138/114
f 111/134/115 110/133/115 118/138/115 119/139/115
f 112/126/116 111/134/116 119/139/116 120/140/116
f 113/127/117 112/126/117 120/140/117 121/141/117
f 114/128/118 113/127/118 121/141/118 122/142/118
f 115/129/119 114/128/119 122/142/119 123/143/119
f 116/130/120 115/129/120 123/143/120 124/135/120
f 122/142/121 121/141/121 129/144/121 130/145/121
f 123/143/122 122/142/122 130/145/122 131/146/122
f 124/135/123 123/143/123 131/146/123 132/147/123
f 125/136/124 124/135/124 132/147/124 133/148/124
f 118/138/125 1/149/125 126/150/125
f 119/139/126 118/138/126 126/150/126 127/151/126
f 120/140/127 119/139/127 127/151/127 128/152/127
f 121/141/128 120/140/128 128/152/128 129/144/128
f 126/150/129 1/153/129 134/154/129
f 127/151/130 126/150/130 134/154/130 135/155/130
f 128/152/131 127/151/131 135/155/131 136/156/131
f 129/144/132 128/152/132 136/156/132 137/157/132
f 130/145/133 129/144/133 137/157/133 138/158/133
f 131/146/134 130/145/134 138/158/134 139/159/134
f 132/147/135 131/146/135 139/159/135 140/160/135
f 133/148/136 132/147/136 140/160/136 141/161/136
f 138/158/137 137/157/137 145/162/137 146/163/137
f 139/159/138 138/158/138 146/163/138 147/164/138
f 140/160/139 139/159/139 147/164/139 148/165/139
f 141/161/140 140/160/140 148/165/140 149/166/140
f 134/154/141 1/167/141 142/168/141
f 135/155/142 134/154/142 142/168/142 143/169/142
f 136/156/143 135/155/143 143/169/143 144/170/143
f 137/157/144 136/156/144 144/170/144 145/162/144
f 143/169/145 142/168/145 150/171/145 151/172/145
f 144/170/146 143/169/146 151/172/146 152/173/146
f 145/162/147 144/170/147 152/173/147 153/174/147
f 146/163/148 145/162/148 153/174/148 154/175/148
f 147/164/149 146/163/149 154/175/149 155/176/149
f 148/165/150 147/164/150 155/176/150 156/177/150
f 149/166/151 148/165/151 156/177/151 157/178/151
f 142/168/152 1/179/152 150/171/152
f 155/176/153 154/175/153 162/180/153 163/181/153
f 156/177/154 155/176/154 163/181/154 164/182/154
f 157/178/155 156/177/155 164/182/155 165/183/155
f 150/171/156 1/184/156 158/185/156
f 151/172/157 150/171/157 158/185/157 159/186/157
f 152/173/158 151/172/158 159/186/158 160/187/158
f 153/174/159 152/173/159 160/187/159 161/188/159
f 154/175/160 153/174/160 161/188/160 162/180/160
f 160/187/161 159/186/161 167/189/161 168/190/161
f 161/188/162 160/187/162 168/190/162 169/191/162
f 162/180/163 161/188/163 169/191/163 170/192/163
f 163/181/164 162/180/164 170/192/164 171/193/164
f 164/182/165 163/181/165 171/193/165 172/194/165
f 165/183/166 164/182/166 172/194/166 173/195/166
f 158/185/167 1/196/167 166/197/167
f 159/186/168 158/185/168 166/197/168 167/189/168
f 172/194/169 171/193/169 179/198/169 180/199/169
f 173/195/170 172/194/170 180/199/170 181/200/170
f 166/197/171 1/201/171 174/202/171
f 167/189/172 166/197/172 174/202/172 175/203/172
f 168/190/173 167/189/173 175/203/173 176/204/173
f 169/191/174 168/190/174 176/204/174 177/205/174
f 170/192/175 169/191/175 177/205/175 178/206/175
f 171/193/176 170/192/176 178/206/176 179/198/176
f 176/204/177 175/203/177 183/207/177 184/208/177
f 177/205/178 176/204/178 184/208/178 185/209/178
f 178/206/179 177/205/179 185/209/179 186/210/179
f 179/198/180 178/206/180 186/210/180 187/211/180
f 180/199/181 179/198/181 187/211/181 188/212/181
f 181/200/182 180/199/182 188/212/182 189/213/182
f 174/202/183 1/214/183 182/215/183
f 175/203/184 174/202/184 182/215/184 183/207/184
f 188/212/185 187/211/185 195/216/185 196/217/185
f 189/213/186 188/212/186 196/217/186 197/218/186
f 182/215/187 1/219/187 190/220/187
f 183/207/188 182/215/188 190/220/188 191/221/188
f 184/208/189 183/207/189 191/221/189 192/222/189
f 185/209/190 184/208/190 192/222/190 193/223/190
f 186/210/191 185/209/191 193/223/191 194/224/191
f 187/211/192 186/210/192 194/224/192 195/216/192
f 193/225/193 192/226/193 200/227/193 201/228/193
f 194/229/194 193/225/194 201/228/194 202/230/194
f 195/231/195 194/229/195 202/230/195 203/232/195
f 196/233/196 195/231/196 203/232/196 204/234/196
f 197/235/197 196/233/197 204/234/197 205/236/197
f 190/237/198 1/238/198 198/239/198
f 191/240/199 190/237/199 198/239/199 199/241/199
f 192/226/200 191/240/200 199/241/200 200/227/200
f 205/236/201 204/234/201 212/242/201 213/243/201
f 198/239/202 1/244/202 206/245/202
f 199/241/203 198/239/203 206/245/203 207/246/203
f 200/227/204 199/241/204 207/246/204 208/247/204
f 201/228/205 200/227/205 208/247/205 209/248/205
f 202/230/206 201/228/206 209/248/206 210/249/206
f 203/232/207 202/230/207 210/249/207 211/250/207
f 204/234/208 203/232/208 211/250/208 212/242/208
f 209/248/209 208/247/209 216/251/209 217/252/209
f 210/249/210 209/248/210 217/252/210 218/253/210
f 211/250/211 210/249/211 218/253/211 219/254/211
f 212/242/212 211/250/212 219/254/212 220/255/212
f 213/243/213 212/242/213 220/255/213 221/256/213
f 206/245/214 1/257/214 214/258/214
f 207/246/215 206/245/215 214/258/215 215/259/215
f 208/247/216 207/246/216 215/259/216 216/251/216
f 221/256/217 220/255/217 228/260/217 229/261/217
f 214/258/218 1/262/218 222/263/218
f 215/259/219 214/258/219 222/263/219 223/264/219
f 216/251/220 215/259/220 223/264/220 224/265/220
f 217/252/221 216/251/221 224/265/221 225/266/221
f 218/253/222 217/252/222 225/266/222 226/267/222
f 219/254/223 218/253/223 226/267/223 227/268/223
f 220/255/224 219/254/224 227/268/224 228/260/224
f 226/267/225 225/266/225 233/269/225 234/270/225
f 227/268/226 226/267/226 234/270/226 235/271/226
f 228/260/227 227/268/227 235/271/227 236/272/227
f 229/261/228 228/260/228 236/272/228 237/273/228
f 222/263/229 1/274/229 230/275/229
f 223/264/230 222/263/230 230/275/230 231/276/230
f 224/265/231 223/264/231 231/276/231 232/277/231
f 225/266/232 224/265/232 232/277/232 233/269/232
f 231/276/233 230/275/233 238/278/233 239/279/233
f 232/277/234 231/276/234 239/279/234 240/280/234
f 233/269/235 232/277/235 240/280/235 241/281/235
f 234/270/236 233/269/236 241/281/236 242/282/236
f 235/271/237 234/270/237 242/282/237 243/283/237
f 236/272/238 235/271/238 243/283/238 244/284/238
f 237/273/239 236/272/239 244/284/239 245/285/239
f 230/275/240 1/286/240 238/278/240
f 243/283/241 242/282/241 250/287/241 251/288/241
f 244/284/242 243/283/242 251/288/242 252/289/242
f 245/285/243 244/284/243 252/289/243 253/290/243
f 238/278/244 1/291/244 246/292/244
f 239/279/245 238/278/245 246/292/245 247/293/245
f 240/280/246 239/279/246 247/293/246 248/294/246
f 241/281/247 240/280/247 248/294/247 249/295/247
f 242/282/248 241/281/248 249/295/248 250/287/248
f 247/293/249 246/292/249 254/2/249 255/1/249
f 248/294/250 247/293/250 255/1/250 2/5/250
f 249/295/251 248/294/251 2/5/251 256/7/251
f 250/287/252 249/295/252 256/7/252 3/9/252
f 251/288/253 250/287/253 3/9/253 257/11/253
f 252/289/254 251/288/254 257/11/254 4/13/254
f 253/290/255 252/289/255 4/13/255 5/15/255
f 246/292/256 1/296/256 254/2/256
